<svg xmlns="http://www.w3.org/2000/svg" xmlns:xlink="http://www.w3.org/1999/xlink" width="2000" zoomAndPan="magnify" viewBox="0 0 1500 1499.999933" height="2000" preserveAspectRatio="xMidYMid meet" version="1.0"><defs><clipPath id="bb8703229f"><path d="M 676 1108 L 824 1108 L 824 1333.714844 L 676 1333.714844 Z M 676 1108 " clip-rule="nonzero"/></clipPath><clipPath id="55ef5521bb"><path d="M 168.152344 639 L 314 639 L 314 865 L 168.152344 865 Z M 168.152344 639 " clip-rule="nonzero"/></clipPath></defs><path fill="#ffffff" d="M 676.917969 752.0625 C 676.917969 682.023438 676.890625 612.007812 676.917969 541.96875 C 676.917969 499.855469 709.375 467.007812 750.542969 467.242188 C 791.140625 467.476562 823.097656 500.300781 823.125 541.890625 C 823.152344 681.945312 823.152344 822.027344 823.125 962.082031 C 823.125 1004.195312 790.667969 1037.042969 749.496094 1036.808594 C 708.902344 1036.570312 676.945312 1003.75 676.917969 962.160156 C 676.867188 892.121094 676.917969 822.105469 676.917969 752.0625 Z M 676.917969 752.0625 " fill-opacity="1" fill-rule="nonzero"/><path fill="#ffffff" d="M 565.023438 603.320312 C 565.023438 646.582031 565.417969 689.847656 564.894531 733.113281 C 564.476562 769.234375 540.082031 797.527344 504.929688 804.125 C 471.769531 810.378906 438.03125 792.003906 424.785156 760.257812 C 420.914062 751.015625 419.105469 741.304688 419.105469 731.203125 C 419.183594 646.21875 419.082031 561.207031 419.183594 476.21875 C 419.238281 433.765625 451.457031 400.917969 492.550781 401.023438 C 533.066406 401.125 564.683594 433.503906 564.972656 475.828125 C 565.261719 518.332031 565.023438 560.8125 565.023438 603.320312 Z M 565.023438 603.320312 " fill-opacity="1" fill-rule="nonzero"/><path fill="#ffffff" d="M 1080.910156 900.863281 C 1080.910156 944.125 1081.171875 987.390625 1080.832031 1030.65625 C 1080.542969 1068.113281 1053.480469 1097.269531 1014.976562 1102.554688 C 981.421875 1107.164062 947.160156 1083.683594 937.660156 1049.265625 C 936.0625 1043.429688 935.148438 1037.199219 935.121094 1031.15625 C 934.964844 944.257812 934.703125 857.335938 935.175781 770.4375 C 935.382812 734.867188 959.855469 706.835938 994.484375 700.03125 C 1027.59375 693.539062 1061.539062 711.679688 1074.992188 743.242188 C 1079.078125 752.847656 1080.960938 762.898438 1080.933594 773.394531 C 1080.832031 815.902344 1080.882812 858.382812 1080.882812 900.886719 Z M 1080.910156 900.863281 " fill-opacity="1" fill-rule="nonzero"/><path fill="#ffffff" d="M 1080.910156 517.519531 C 1079.757812 532.648438 1083.003906 551.074219 1079.078125 569.265625 C 1071.539062 604.207031 1040 628.578125 1004.925781 626.640625 C 967.96875 624.597656 938.65625 598.398438 935.722656 562.355469 C 933.160156 530.738281 933.238281 498.859375 935.59375 467.242188 C 938.5 428.347656 972.417969 399.398438 1010.214844 401.046875 C 1049.761719 402.777344 1080.410156 434.445312 1080.882812 474.230469 C 1081.039062 487.605469 1080.882812 501.003906 1080.882812 517.519531 Z M 1080.910156 517.519531 " fill-opacity="1" fill-rule="nonzero"/><path fill="#ffffff" d="M 419.183594 986.109375 C 420.230469 971.636719 417.117188 953.207031 420.914062 935.019531 C 428.109375 900.625 459.203125 876.023438 493.726562 877.253906 C 530.84375 878.585938 561.414062 905.3125 564.265625 941.507812 C 566.832031 973.886719 566.910156 1006.550781 564.214844 1038.902344 C 561.097656 1076.070312 526.941406 1104.546875 490.011719 1103.027344 C 451.851562 1101.484375 420.753906 1071.148438 419.265625 1033.511719 C 418.6875 1019.007812 419.160156 1004.457031 419.160156 986.109375 Z M 419.183594 986.109375 " fill-opacity="1" fill-rule="nonzero"/><path fill="#ffffff" d="M 676.917969 279.027344 C 677.992188 264.367188 674.824219 246.28125 678.488281 228.511719 C 686.394531 190.191406 720.234375 166.269531 759.863281 170.691406 C 795.589844 174.671875 823.019531 206.183594 823.125 243.507812 C 823.203125 269.890625 823.253906 296.300781 823.125 322.710938 C 822.914062 363.28125 790.460938 395.394531 749.917969 395.34375 C 709.398438 395.289062 677.101562 363.070312 676.917969 322.5 C 676.867188 309.101562 676.917969 295.726562 676.917969 279.078125 Z M 676.917969 279.027344 " fill-opacity="1" fill-rule="nonzero"/><g clip-path="url(#bb8703229f)"><path fill="#ffffff" d="M 676.917969 1220.78125 C 676.917969 1208.167969 676.917969 1195.523438 676.917969 1182.910156 C 676.996094 1141.1875 708.769531 1108.863281 749.757812 1108.757812 C 790.878906 1108.65625 823.046875 1140.925781 823.125 1182.386719 C 823.175781 1208.796875 823.253906 1235.179688 823.125 1261.585938 C 822.914062 1302.183594 790.644531 1333.828125 749.707031 1333.773438 C 709.476562 1333.695312 677.285156 1302.027344 676.917969 1262.109375 C 676.785156 1248.34375 676.917969 1234.578125 676.917969 1220.78125 Z M 676.917969 1220.78125 " fill-opacity="1" fill-rule="nonzero"/></g><g clip-path="url(#55ef5521bb)"><path fill="#ffffff" d="M 313.707031 752.273438 C 313.707031 765.648438 313.757812 779.050781 313.707031 792.421875 C 313.46875 833.070312 281.355469 864.714844 240.496094 864.609375 C 200.375 864.507812 168.519531 832.757812 168.308594 792.527344 C 168.179688 765.386719 168.152344 738.242188 168.308594 711.101562 C 168.570312 671.03125 200.660156 639.515625 240.96875 639.492188 C 281.171875 639.492188 313.390625 671.132812 313.679688 710.996094 C 313.785156 724.765625 313.679688 738.53125 313.679688 752.300781 Z M 313.707031 752.273438 " fill-opacity="1" fill-rule="nonzero"/></g><path fill="#ffffff" d="M 1331.730469 752.824219 C 1331.730469 766.589844 1331.863281 780.359375 1331.730469 794.097656 C 1331.3125 833.253906 1299.015625 864.558594 1259.152344 864.585938 C 1219.421875 864.585938 1186.78125 833.175781 1186.46875 794.230469 C 1186.230469 765.9375 1186.207031 737.640625 1186.46875 709.347656 C 1186.835938 671.03125 1219.421875 639.542969 1258.417969 639.4375 C 1298.464844 639.332031 1331.128906 670.351562 1331.707031 709.21875 C 1331.914062 723.742188 1331.730469 738.269531 1331.730469 752.796875 Z M 1331.730469 752.824219 " fill-opacity="1" fill-rule="nonzero"/></svg>