<svg xmlns="http://www.w3.org/2000/svg" xmlns:xlink="http://www.w3.org/1999/xlink" width="2000" zoomAndPan="magnify" viewBox="0 0 1500 1499.999933" height="2000" preserveAspectRatio="xMidYMid meet" version="1.0"><defs><clipPath id="abb2192711"><path d="M 676 1108 L 824 1108 L 824 1333.714844 L 676 1333.714844 Z M 676 1108 " clip-rule="nonzero"/></clipPath><clipPath id="03da2387cd"><path d="M 168.152344 639 L 314 639 L 314 865 L 168.152344 865 Z M 168.152344 639 " clip-rule="nonzero"/></clipPath><clipPath id="a5e0fe5a4c"><path d="M 1186 639 L 1332.152344 639 L 1332.152344 865 L 1186 865 Z M 1186 639 " clip-rule="nonzero"/></clipPath></defs><path fill="#000000" d="M 677.054688 751.90625 C 677.054688 681.882812 677.03125 611.886719 677.054688 541.867188 C 677.054688 499.761719 709.519531 466.925781 750.703125 467.160156 C 791.308594 467.394531 823.277344 500.207031 823.300781 541.785156 C 823.328125 681.804688 823.328125 821.847656 823.300781 961.867188 C 823.300781 1003.96875 790.839844 1036.808594 749.65625 1036.570312 C 709.050781 1036.335938 677.082031 1003.523438 677.054688 961.945312 C 677.003906 891.921875 677.054688 821.925781 677.054688 751.90625 Z M 677.054688 751.90625 " fill-opacity="1" fill-rule="nonzero"/><path fill="#000000" d="M 565.132812 603.199219 C 565.132812 646.453125 565.527344 689.707031 565.003906 732.960938 C 564.582031 769.070312 540.183594 797.355469 505.023438 803.949219 C 471.851562 810.203125 438.105469 791.835938 424.855469 760.09375 C 420.980469 750.859375 419.175781 741.152344 419.175781 731.050781 C 419.253906 646.085938 419.148438 561.097656 419.253906 476.136719 C 419.304688 433.691406 451.535156 400.855469 492.636719 400.957031 C 533.167969 401.0625 564.792969 433.429688 565.082031 475.742188 C 565.367188 518.238281 565.132812 560.707031 565.132812 603.199219 Z M 565.132812 603.199219 " fill-opacity="1" fill-rule="nonzero"/><path fill="#000000" d="M 1081.15625 900.664062 C 1081.15625 943.914062 1081.417969 987.167969 1081.078125 1030.421875 C 1080.789062 1067.867188 1053.71875 1097.015625 1015.207031 1102.300781 C 981.644531 1106.90625 947.375 1083.4375 937.871094 1049.027344 C 936.273438 1043.191406 935.355469 1036.964844 935.332031 1030.921875 C 935.171875 944.046875 934.910156 857.148438 935.382812 770.273438 C 935.59375 734.714844 960.070312 706.6875 994.707031 699.886719 C 1027.828125 693.398438 1061.785156 711.53125 1075.242188 743.085938 C 1079.324219 752.691406 1081.210938 762.738281 1081.183594 773.230469 C 1081.078125 815.726562 1081.132812 858.195312 1081.132812 900.6875 Z M 1081.15625 900.664062 " fill-opacity="1" fill-rule="nonzero"/><path fill="#000000" d="M 1081.15625 517.425781 C 1080.003906 532.550781 1083.25 550.972656 1079.324219 569.15625 C 1071.785156 604.089844 1040.238281 628.449219 1005.15625 626.515625 C 968.1875 624.472656 938.863281 598.28125 935.933594 562.25 C 933.367188 530.640625 933.445312 498.769531 935.800781 467.160156 C 938.707031 428.277344 972.636719 399.335938 1010.441406 400.984375 C 1050.003906 402.710938 1080.660156 434.375 1081.132812 474.144531 C 1081.289062 487.515625 1081.132812 500.914062 1081.132812 517.425781 Z M 1081.15625 517.425781 " fill-opacity="1" fill-rule="nonzero"/><path fill="#000000" d="M 419.253906 985.886719 C 420.300781 971.417969 417.183594 952.996094 420.980469 934.808594 C 428.179688 900.425781 459.285156 875.832031 493.816406 877.058594 C 530.941406 878.394531 561.519531 905.109375 564.375 941.300781 C 566.941406 973.667969 567.019531 1006.324219 564.320312 1038.664062 C 561.207031 1075.820312 527.039062 1104.292969 490.097656 1102.773438 C 451.925781 1101.230469 420.824219 1070.902344 419.332031 1033.273438 C 418.757812 1018.777344 419.226562 1004.230469 419.226562 985.886719 Z M 419.253906 985.886719 " fill-opacity="1" fill-rule="nonzero"/><path fill="#000000" d="M 677.054688 278.996094 C 678.128906 264.34375 674.960938 246.261719 678.628906 228.492188 C 686.535156 190.1875 720.386719 166.269531 760.023438 170.691406 C 795.761719 174.667969 823.199219 206.175781 823.300781 243.488281 C 823.382812 269.863281 823.433594 296.265625 823.300781 322.667969 C 823.09375 363.226562 790.628906 395.332031 750.074219 395.28125 C 709.546875 395.226562 677.238281 363.015625 677.054688 322.457031 C 677.003906 309.0625 677.054688 295.691406 677.054688 279.046875 Z M 677.054688 278.996094 " fill-opacity="1" fill-rule="nonzero"/><g clip-path="url(#abb2192711)"><path fill="#000000" d="M 677.054688 1220.496094 C 677.054688 1207.886719 677.054688 1195.246094 677.054688 1182.632812 C 677.136719 1140.925781 708.917969 1108.609375 749.917969 1108.503906 C 791.046875 1108.398438 823.222656 1140.664062 823.300781 1182.109375 C 823.355469 1208.511719 823.433594 1234.890625 823.300781 1261.289062 C 823.09375 1301.875 790.8125 1333.511719 749.863281 1333.457031 C 709.625 1333.378906 677.421875 1301.71875 677.054688 1261.8125 C 676.925781 1248.050781 677.054688 1234.285156 677.054688 1220.496094 Z M 677.054688 1220.496094 " fill-opacity="1" fill-rule="nonzero"/></g><g clip-path="url(#03da2387cd)"><path fill="#000000" d="M 313.746094 752.113281 C 313.746094 765.484375 313.796875 778.882812 313.746094 792.253906 C 313.507812 832.890625 281.386719 864.527344 240.515625 864.421875 C 200.382812 864.316406 168.519531 832.578125 168.308594 792.359375 C 168.179688 765.222656 168.152344 738.089844 168.308594 710.953125 C 168.570312 670.894531 200.667969 639.386719 240.988281 639.363281 C 281.203125 639.363281 313.429688 670.996094 313.71875 710.851562 C 313.824219 724.613281 313.71875 738.375 313.71875 752.140625 Z M 313.746094 752.113281 " fill-opacity="1" fill-rule="nonzero"/></g><g clip-path="url(#a5e0fe5a4c)"><path fill="#000000" d="M 1332.046875 752.664062 C 1332.046875 766.425781 1332.179688 780.191406 1332.046875 793.929688 C 1331.628906 833.074219 1299.324219 864.371094 1259.449219 864.394531 C 1219.707031 864.394531 1187.058594 832.996094 1186.746094 794.058594 C 1186.507812 765.773438 1186.484375 737.488281 1186.746094 709.203125 C 1187.113281 670.894531 1219.707031 639.414062 1258.714844 639.308594 C 1298.773438 639.207031 1331.445312 670.214844 1332.023438 709.070312 C 1332.230469 723.59375 1332.046875 738.117188 1332.046875 752.636719 Z M 1332.046875 752.664062 " fill-opacity="1" fill-rule="nonzero"/></g></svg>